# xmcd
#
# Track frame offsets:
# 150
# 11292
# 20436
# 35841
# 53331
# 63190
# 80265
# 95163
# 105226
# 122232
#
# Disc length: 1808 seconds
#
#
# Revision: 0
# Processed by: cddbd v1.5.2PL0 Copyright (c) Steve Scherf et al.
# Submitted via: FreeRIP 2.60 
#
DISCID=6f070e0a
DTITLE=Bo Diddley - Best of Bo Diddley
DYEAR=2006
DGENRE=Blues
TTITLE0=Bo Diddley
TTITLE1=Crackin' Up
TTITLE2=Road Runner (Live)
TTITLE3=You Can't Judge a Book by it's Cover (Live)
TTITLE4=Hey! Bo Diddley
TTITLE5=Say Boss Man (Live)
TTITLE6=Down Home Special
TTITLE7=Mess Around (Live)
TTITLE8=Mona (Live)
TTITLE9=Who May Your Lover Be (Live)
EXTD=Direct Source# BO 56562
EXTT0=
EXTT1=
EXTT2=
EXTT3=
EXTT4=
EXTT5=
EXTT6=
EXTT7=
EXTT8=
EXTT9=
PLAYORDER=
